<svg xmlns="http://www.w3.org/2000/svg" viewBox="0 0 24 18">
  <defs><clipPath id="r"><rect width="24" height="18" rx="3"></rect></clipPath></defs>
  <g clip-path="url(#r)">
    <rect width="24" height="18" fill="#FFFFFF"></rect>
    <rect y="0" width="24" height="1.385" fill="#BF0A30"></rect><rect y="2.57" width="24" height="1.385" fill="#BF0A30"></rect><rect y="5.14" width="24" height="1.385" fill="#BF0A30"></rect><rect y="7.709999999999999" width="24" height="1.385" fill="#BF0A30"></rect><rect y="10.28" width="24" height="1.385" fill="#BF0A30"></rect><rect y="12.85" width="24" height="1.385" fill="#BF0A30"></rect><rect y="15.419999999999998" width="24" height="1.385" fill="#BF0A30"></rect>
    <rect width="10" height="9.7" fill="#002868"></rect>
    <circle cx="0.90" cy="0.90" r=".42" fill="#fff"></circle><circle cx="2.40" cy="0.90" r=".42" fill="#fff"></circle><circle cx="3.90" cy="0.90" r=".42" fill="#fff"></circle><circle cx="5.40" cy="0.90" r=".42" fill="#fff"></circle><circle cx="6.90" cy="0.90" r=".42" fill="#fff"></circle><circle cx="8.40" cy="0.90" r=".42" fill="#fff"></circle><circle cx="1.65" cy="2.60" r=".42" fill="#fff"></circle><circle cx="3.15" cy="2.60" r=".42" fill="#fff"></circle><circle cx="4.65" cy="2.60" r=".42" fill="#fff"></circle><circle cx="6.15" cy="2.60" r=".42" fill="#fff"></circle><circle cx="7.65" cy="2.60" r=".42" fill="#fff"></circle><circle cx="9.15" cy="2.60" r=".42" fill="#fff"></circle><circle cx="0.90" cy="4.30" r=".42" fill="#fff"></circle><circle cx="2.40" cy="4.30" r=".42" fill="#fff"></circle><circle cx="3.90" cy="4.30" r=".42" fill="#fff"></circle><circle cx="5.40" cy="4.30" r=".42" fill="#fff"></circle><circle cx="6.90" cy="4.30" r=".42" fill="#fff"></circle><circle cx="8.40" cy="4.30" r=".42" fill="#fff"></circle><circle cx="1.65" cy="6.00" r=".42" fill="#fff"></circle><circle cx="3.15" cy="6.00" r=".42" fill="#fff"></circle><circle cx="4.65" cy="6.00" r=".42" fill="#fff"></circle><circle cx="6.15" cy="6.00" r=".42" fill="#fff"></circle><circle cx="7.65" cy="6.00" r=".42" fill="#fff"></circle><circle cx="9.15" cy="6.00" r=".42" fill="#fff"></circle><circle cx="0.90" cy="7.70" r=".42" fill="#fff"></circle><circle cx="2.40" cy="7.70" r=".42" fill="#fff"></circle><circle cx="3.90" cy="7.70" r=".42" fill="#fff"></circle><circle cx="5.40" cy="7.70" r=".42" fill="#fff"></circle><circle cx="6.90" cy="7.70" r=".42" fill="#fff"></circle><circle cx="8.40" cy="7.70" r=".42" fill="#fff"></circle>
  </g>
</svg>